# xmcd
#
# Track frame offsets:
#	150
#	13720
#	31615
#	46742
#	69793
#	81397
#	95013
#	108740
#	121041
#	131645
#	149032
#	162616
#	190472
#	205988
#	218692
#	230475
#
# Disc length: 3573 seconds
# Revision: 0
# Processed by: cddbd v1.5.2PL0 Copyright (c) Steve Scherf et al.
# Submitted via: dBpowerAMP V12.0
#
DISCID=e50df310
DTITLE=Various Artist - Slow Blues Moods
DYEAR=2003
DGENRE=Blues
TTITLE0=John Lee Hooker - Time is marching
TTITLE1=Lightnin Hopkins - Devil is watching you
TTITLE2=Memphis Slim - Beer Drinking Woman
TTITLE3=Brownie McGhee and Sonny Terry - Blues for the lowlands
TTITLE4=Big Bill Broonzy - Just a dream, no 2
TTITLE5=Leadbelly - Where did you sleep last night
TTITLE6=Jimmy Reed - You don't have to go
TTITLE7=Eearl Hooker - Blue Guitar
TTITLE8=Robert Johnson - Rambling on my mind
TTITLE9=Sonny Boy Williamson - Fattenin frogs for snakes
TTITLE10=Jamess Cotton - Cotton Crop Blues
TTITLE11=Champion Jack Dupree - Hard feeling
TTITLE12=George Baze - Little Red Rooster
TTITLE13=Walter Horton - Easy
TTITLE14=D. A. Hunt - Greyhound Blues
TTITLE15=Jimi Hendrix - Bleeding Heart
EXTD=
EXTT0=
EXTT1=
EXTT2=
EXTT3=
EXTT4=
EXTT5=
EXTT6=
EXTT7=
EXTT8=
EXTT9=
EXTT10=
EXTT11=
EXTT12=
EXTT13=
EXTT14=
EXTT15=
PLAYORDER=
